<svg width="1792" height="1792" xmlns="http://www.w3.org/2000/svg" xmlns:svg="http://www.w3.org/2000/svg" viewBox="0 0 1792 1792">
    <g>
        <title>Layer 1</title>
        <path id="svg_1" d="m1179.203514,889.83526q0,-118.795615 -84.053501,-202.849117t-202.849117,-84.053501q-118.795615,0 -202.849117,84.053501t-84.053501,202.849117q0,118.795615 84.053501,202.849117t202.849117,84.053501q118.795615,0 202.849117,-84.053501t84.053501,-202.849117zm573.805237,-122.157755l0,248.798364q0,13.44856 -8.965707,25.776407t-22.414267,14.569274l-207.33197,31.379974q-21.293554,60.518521 -43.707821,101.984915q39.224967,56.035668 119.916329,154.658443q11.207134,13.44856 11.207134,28.017834t-10.08642,25.776407q-30.259261,41.466394 -110.950622,121.037042t-105.347055,79.570648q-13.44856,0 -29.138547,-10.08642l-154.658443,-121.037042q-49.311388,25.776407 -101.984915,42.587107q-17.931414,152.417016 -32.500687,208.452684q-7.844993,31.379974 -40.345681,31.379974l-248.798364,0q-15.689987,0 -27.457477,-9.526064t-12.888204,-24.095337l-31.379974,-206.211257q-54.914954,-17.931414 -100.864202,-41.466394l-158.020583,119.916329q-11.207134,10.08642 -28.017834,10.08642q-15.689987,0 -28.017834,-12.327847q-141.209882,-127.761322 -184.917703,-188.279843q-7.844993,-11.207134 -7.844993,-25.776407q0,-13.44856 8.965707,-25.776407q16.8107,-23.53498 57.156381,-74.527438t60.518521,-79.010291q-30.259261,-56.035668 -45.949247,-110.950622l-205.090544,-30.259261q-14.569274,-2.241427 -23.53498,-14.008917t-8.965707,-26.336764l0,-248.798364q0,-13.44856 8.965707,-25.776407t21.293554,-14.569274l208.452684,-31.379974q15.689987,-51.552814 43.707821,-103.105628q-44.828534,-63.880661 -119.916329,-154.658443q-11.207134,-13.44856 -11.207134,-26.89712q0,-11.207134 10.08642,-25.776407q29.138547,-40.345681 110.390265,-120.476685t105.907412,-80.131005q14.569274,0 29.138547,11.207134l154.658443,119.916329q49.311388,-25.776407 101.984915,-42.587107q17.931414,-152.417016 32.500687,-208.452684q7.844993,-31.379974 40.345681,-31.379974l248.798364,0q15.689987,0 27.457477,9.526064t12.888204,24.095337l31.379974,206.211257q54.914954,17.931414 100.864202,41.466394l159.141296,-119.916329q10.08642,-10.08642 26.89712,-10.08642q14.569274,0 28.017834,11.207134q144.572023,133.364889 184.917703,190.52127q7.844993,8.965707 7.844993,24.655694q0,13.44856 -8.965707,25.776407q-16.8107,23.53498 -57.156381,74.527438t-60.518521,79.010291q29.138547,56.035668 45.949247,109.829909l205.090544,31.379974q14.569274,2.241427 23.53498,14.008917t8.965707,26.336764z" fill="#032453"/>
    </g>
</svg>